{
    "accessors" : [
        {
            "bufferView" : 0, 
            "componentType" : 5123, 
            "count" : 9600, 
            "max" : [
                6399
            ], 
            "min" : [
                0
            ], 
            "type" : "SCALAR"
        }, 
        {
            "bufferView" : 1, 
            "componentType" : 5126, 
            "count" : 6400, 
            "max" : [
                0.6862262487411499, 
                0.26215505599975586, 
                0.6824332475662231
            ], 
            "min" : [
                -0.6831779479980469, 
                0.025688743218779564, 
                -0.6841922998428345
            ], 
            "type" : "VEC3"
        }, 
        {
            "bufferView" : 2, 
            "componentType" : 5126, 
            "count" : 6400, 
            "max" : [
                0.9919030666351318, 
                0.9926907420158386, 
                0.9910625219345093
            ], 
            "min" : [
                -0.9918498396873474, 
                -0.9995987415313721, 
                -0.9910032749176025
            ], 
            "type" : "VEC3"
        }, 
        {
            "bufferView" : 3, 
            "componentType" : 5123, 
            "count" : 11136, 
            "max" : [
                7276
            ], 
            "min" : [
                0
            ], 
            "type" : "SCALAR"
        }, 
        {
            "bufferView" : 4, 
            "componentType" : 5126, 
            "count" : 7277, 
            "max" : [
                1.1800315380096436, 
                5.160451889038086, 
                1.1624456644058228
            ], 
            "min" : [
                -1.356499433517456, 
                -2.720127582550049, 
                -1.1583783626556396
            ], 
            "type" : "VEC3"
        }, 
        {
            "bufferView" : 5, 
            "componentType" : 5126, 
            "count" : 7277, 
            "max" : [
                0.9947577714920044, 
                1.0, 
                0.9955389499664307
            ], 
            "min" : [
                -0.9947539567947388, 
                -0.9998969435691833, 
                -0.9955389499664307
            ], 
            "type" : "VEC3"
        }, 
        {
            "bufferView" : 6, 
            "componentType" : 5123, 
            "count" : 2880, 
            "max" : [
                479
            ], 
            "min" : [
                0
            ], 
            "type" : "SCALAR"
        }, 
        {
            "bufferView" : 7, 
            "componentType" : 5126, 
            "count" : 480, 
            "max" : [
                0.6479929089546204, 
                0.19485101103782654, 
                0.6479929089546204
            ], 
            "min" : [
                -0.6479929089546204, 
                -0.19485101103782654, 
                -0.6479929089546204
            ], 
            "type" : "VEC3"
        }, 
        {
            "bufferView" : 8, 
            "componentType" : 5126, 
            "count" : 480, 
            "max" : [
                1.0, 
                0.999908447265625, 
                1.0
            ], 
            "min" : [
                -1.0, 
                -0.999908447265625, 
                -1.0
            ], 
            "type" : "VEC3"
        }, 
        {
            "bufferView" : 9, 
            "componentType" : 5121, 
            "count" : 6, 
            "max" : [
                3
            ], 
            "min" : [
                0
            ], 
            "type" : "SCALAR"
        }, 
        {
            "bufferView" : 10, 
            "componentType" : 5126, 
            "count" : 4, 
            "max" : [
                1.0, 
                0.0, 
                1.0
            ], 
            "min" : [
                -1.0, 
                0.0, 
                -1.0
            ], 
            "type" : "VEC3"
        }, 
        {
            "bufferView" : 11, 
            "componentType" : 5126, 
            "count" : 4, 
            "max" : [
                0.0, 
                1.0, 
                -0.0
            ], 
            "min" : [
                0.0, 
                1.0, 
                -0.0
            ], 
            "type" : "VEC3"
        }, 
        {
            "bufferView" : 12, 
            "componentType" : 5126, 
            "count" : 4, 
            "max" : [
                1.0, 
                0.0, 
                -0.0, 
                1.0
            ], 
            "min" : [
                1.0, 
                0.0, 
                -0.0, 
                1.0
            ], 
            "type" : "VEC4"
        }, 
        {
            "bufferView" : 13, 
            "componentType" : 5126, 
            "count" : 4, 
            "max" : [
                0.9999000430107117, 
                0.9999000199895818
            ], 
            "min" : [
                9.998001041822135e-05, 
                9.995698928833008e-05
            ], 
            "type" : "VEC2"
        }, 
        {
            "bufferView" : 14, 
            "componentType" : 5125, 
            "count" : 115788, 
            "max" : [
                76321
            ], 
            "min" : [
                0
            ], 
            "type" : "SCALAR"
        }, 
        {
            "bufferView" : 15, 
            "componentType" : 5126, 
            "count" : 76322, 
            "max" : [
                1.2086364030838013, 
                0.6281089782714844, 
                0.6196987628936768
            ], 
            "min" : [
                -0.6196987628936768, 
                -1.018556833267212, 
                -0.6196987628936768
            ], 
            "type" : "VEC3"
        }, 
        {
            "bufferView" : 16, 
            "componentType" : 5126, 
            "count" : 76322, 
            "max" : [
                0.999885618686676, 
                0.9999764561653137, 
                0.9998152852058411
            ], 
            "min" : [
                -0.9998152852058411, 
                -1.0, 
                -0.9998152852058411
            ], 
            "type" : "VEC3"
        }
    ], 
    "asset" : {
        "generator" : "Khronos Blender glTF 2.0 exporter", 
        "version" : "2.0"
    }, 
    "bufferViews" : [
        {
            "buffer" : 0, 
            "byteLength" : 19200, 
            "byteOffset" : 0, 
            "target" : 34963
        }, 
        {
            "buffer" : 0, 
            "byteLength" : 76800, 
            "byteOffset" : 19200, 
            "target" : 34962
        }, 
        {
            "buffer" : 0, 
            "byteLength" : 76800, 
            "byteOffset" : 96000, 
            "target" : 34962
        }, 
        {
            "buffer" : 0, 
            "byteLength" : 22272, 
            "byteOffset" : 172800, 
            "target" : 34963
        }, 
        {
            "buffer" : 0, 
            "byteLength" : 87324, 
            "byteOffset" : 195072, 
            "target" : 34962
        }, 
        {
            "buffer" : 0, 
            "byteLength" : 87324, 
            "byteOffset" : 282396, 
            "target" : 34962
        }, 
        {
            "buffer" : 0, 
            "byteLength" : 5760, 
            "byteOffset" : 369720, 
            "target" : 34963
        }, 
        {
            "buffer" : 0, 
            "byteLength" : 5760, 
            "byteOffset" : 375480, 
            "target" : 34962
        }, 
        {
            "buffer" : 0, 
            "byteLength" : 5760, 
            "byteOffset" : 381240, 
            "target" : 34962
        }, 
        {
            "buffer" : 0, 
            "byteLength" : 6, 
            "byteOffset" : 387000, 
            "target" : 34963
        }, 
        {
            "buffer" : 0, 
            "byteLength" : 48, 
            "byteOffset" : 387008, 
            "target" : 34962
        }, 
        {
            "buffer" : 0, 
            "byteLength" : 48, 
            "byteOffset" : 387056, 
            "target" : 34962
        }, 
        {
            "buffer" : 0, 
            "byteLength" : 64, 
            "byteOffset" : 387104, 
            "target" : 34962
        }, 
        {
            "buffer" : 0, 
            "byteLength" : 32, 
            "byteOffset" : 387168, 
            "target" : 34962
        }, 
        {
            "buffer" : 0, 
            "byteLength" : 463152, 
            "byteOffset" : 387200, 
            "target" : 34963
        }, 
        {
            "buffer" : 0, 
            "byteLength" : 915864, 
            "byteOffset" : 850352, 
            "target" : 34962
        }, 
        {
            "buffer" : 0, 
            "byteLength" : 915864, 
            "byteOffset" : 1766216, 
            "target" : 34962
        }
    ], 
    "buffers" : [
        {
            "byteLength" : 2682080, 
            "uri" : "tabletop.bin"
        }
    ], 
    "materials" : [
        {
            "name" : "Material", 
            "pbrMetallicRoughness" : {
                "baseColorFactor" : [
                    0.640000066757203, 
                    0.39968519806392777, 
                    0.25828521636553425, 
                    1.0
                ], 
                "metallicFactor" : 0.0
            }
        }
    ], 
    "meshes" : [
        {
            "name" : "Torus.001", 
            "primitives" : [
                {
                    "attributes" : {
                        "NORMAL" : 2, 
                        "POSITION" : 1
                    }, 
                    "indices" : 0
                }
            ]
        }, 
        {
            "name" : "Cylinder.003", 
            "primitives" : [
                {
                    "attributes" : {
                        "NORMAL" : 5, 
                        "POSITION" : 4
                    }, 
                    "indices" : 3
                }
            ]
        }, 
        {
            "name" : "Torus", 
            "primitives" : [
                {
                    "attributes" : {
                        "NORMAL" : 8, 
                        "POSITION" : 7
                    }, 
                    "indices" : 6, 
                    "material" : 0
                }
            ]
        }, 
        {
            "name" : "Plane", 
            "primitives" : [
                {
                    "attributes" : {
                        "NORMAL" : 11, 
                        "POSITION" : 10, 
                        "TANGENT" : 12, 
                        "TEXCOORD_0" : 13
                    }, 
                    "indices" : 9
                }
            ]
        }, 
        {
            "name" : "Cylinder.001", 
            "primitives" : [
                {
                    "attributes" : {
                        "NORMAL" : 16, 
                        "POSITION" : 15
                    }, 
                    "indices" : 14
                }
            ]
        }
    ], 
    "nodes" : [
        {
            "name" : "Camera", 
            "rotation" : [
                0.483536034822464, 
                0.33687159419059753, 
                -0.20870360732078552, 
                0.7804827094078064
            ], 
            "translation" : [
                7.481131553649902, 
                5.34366512298584, 
                6.5076398849487305
            ]
        }, 
        {
            "mesh" : 2, 
            "name" : "Donut", 
            "rotation" : [
                0.0, 
                0.2650410234928131, 
                -0.0, 
                0.9642371535301208
            ], 
            "translation" : [
                0.7828855514526367, 
                0.22147494554519653, 
                0.15031331777572632
            ]
        }, 
        {
            "mesh" : 0, 
            "name" : "Frosting", 
            "rotation" : [
                0.0, 
                0.2650410234928131, 
                -0.0, 
                0.9642371535301208
            ], 
            "translation" : [
                0.7828855514526367, 
                0.22147494554519653, 
                0.15031331777572632
            ]
        }, 
        {
            "mesh" : 4, 
            "name" : "Mug", 
            "rotation" : [
                0.0, 
                0.2650410234928131, 
                -0.0, 
                0.9642371535301208
            ], 
            "translation" : [
                1.1218082904815674, 
                1.0434881448745728, 
                -2.0405471324920654
            ]
        }, 
        {
            "mesh" : 1, 
            "name" : "Plate", 
            "scale" : [
                1.0, 
                0.04487121105194092, 
                1.0
            ], 
            "translation" : [
                0.7723816633224487, 
                0.0, 
                -0.09045910835266113
            ]
        }, 
        {
            "name" : "Spot", 
            "rotation" : [
                0.19075047969818115, 
                0.13992570340633392, 
                0.2068503350019455, 
                0.9493408203125
            ], 
            "translation" : [
                -9.74093246459961, 
                22.47210121154785, 
                10.21996784210205
            ]
        }, 
        {
            "mesh" : 3, 
            "name" : "Table", 
            "scale" : [
                8.0, 
                8.0, 
                8.0
            ]
        }
    ], 
    "scene" : 0, 
    "scenes" : [
        {
            "name" : "Scene", 
            "nodes" : [
                5, 
                4, 
                3, 
                2, 
                1, 
                6, 
                0
            ]
        }
    ]
}
